<svg height="613" viewBox="0 0 3027 613" width="3027" xmlns="http://www.w3.org/2000/svg"><g fill="none" fill-rule="evenodd" transform="translate(-432 -430)"><path d="m918.92 611.059986h-181.92c-33.146543-.015904-64.940937 13.140352-88.384711 36.572873-23.443773 23.43252-36.615289 55.220594-36.615289 88.367141v19.25h72v-19.25c.049646-29.235938 23.764019-52.910042 53-52.91h182c29.169593.093522 52.780616 23.740299 52.83 52.91v182c-.049544 29.20084-23.70916 52.860456-52.91 52.91h-181.92c-29.216459-.027521-52.9004-23.69357-52.95-52.91v-18.72h-72.05v18.72c.010606 33.139615 13.186809 64.917412 36.629432 88.34128 23.442623 23.42387 55.230955 36.57464 88.370568 36.55873h182c68.955597-.04416 124.83794-55.944403 124.86-124.90001v-182c0-69.002457-55.937543-124.940014-124.94-124.940014z" fill="#000"/><path d="m789.48 754.92c-7.410541 21.280119-27.46649 35.54792-50 35.57h-182c-29.204745-.044041-52.87044-23.705264-52.92-52.91v-182c.044055-29.208641 23.711359-52.875945 52.92-52.92h182c22.873922.032947 43.145942 14.737015 50.28 36.47h73.58c-8.294966-62.061125-61.226991-108.410842-123.84-108.44h-182c-68.985217.022087-124.895525 55.954779-124.89 124.94v182c.027606 68.98293 55.957065 124.89 124.94 124.89h182c62.296472-.021448 115.068334-45.910024 123.74-107.6z" fill="#99b6ff"/><circle cx="1115.98" cy="826.56" fill="#ddd" r="35.96"/><circle cx="1206.09" cy="826.56" fill="#ddd" r="35.96"/><g fill="#000"><path d="m2211.54 773.36c-17.05446-15.553887-39.24891-24.267159-62.33-24.47-10.58379-.112478-21.07987 1.9289-30.85 6-9.30141 3.924025-17.78207 9.56197-25 16.62-14.79048 14.453867-23.03706 34.320789-22.83 55-.18127 20.817933 8.05101 40.827097 22.83 55.49 14.92337 14.795872 35.14614 23.005972 56.16 22.8 10.71526-.106349 21.32408-2.138689 31.32-6 10.52457-3.889092 20.36656-9.420992 29.16-16.39l21 24.77c-7.71727 5.738625-16.0484 10.601807-24.84 14.5-9.36871 4.23628-19.13722 7.52595-29.16 9.82-9.81403 2.280812-19.85445 3.44487-29.93 3.47-15.25772.151385-30.39911-2.667671-44.58-8.3-13.38889-5.346462-25.6396-13.188957-36.1-23.11-21.15809-19.999558-33.06245-47.886254-32.87-77-.12094-14.515041 2.8802-28.886433 8.8-42.14 5.82647-12.940933 14.16433-24.596264 24.53-34.29 10.67449-9.995119 23.19915-17.808169 36.87-23 14.53418-5.512313 29.96612-8.275888 45.51-8.15 10.23776-.004115 20.43954 1.211696 30.39 3.62 9.85719 2.379638 19.42667 5.823176 28.54 10.27 8.71835 4.205606 16.81744 9.589296 24.07 16zm-12.34 55.89h31.8v77.93h-31.8z" fill-rule="nonzero"/><path d="m2339 719h35.79l125 171.24-9.25 3.09v-174.33h35.79v216h-35.79l-124.71-171 9.57-3.09v174.09h-36.4z"/><path d="m2634.29 719h36.41v216h-36.41z"/><path d="m2867.26 719c16.25333 0 31.16667 2.666667 44.74 8 13.15658 5.083495 25.16742 12.73943 35.33 22.52 10.01197 9.715917 17.93982 21.369508 23.3 34.25 5.67194 13.699551 8.51884 28.403456 8.37 43.23.16304 14.749461-2.67089 29.378412-8.33 43-5.42536 12.882119-13.4022 24.532729-23.45 34.25-10.28372 9.926087-22.47236 17.665173-35.83 22.75-14.37148 5.443712-29.63287 8.156847-45 8h-87.63v-216zm.93 184.82c9.9924.097287 19.90447-1.792668 29.16-5.56 8.83147-3.617913 16.81637-9.028578 23.45-15.89 6.77333-7.026997 12.11579-15.3039 15.73-24.37 7.66482-19.865713 7.6113-41.881783-.15-61.71-3.7386-9.11255-9.16738-17.435563-16-24.53-6.76477-6.949719-14.9141-12.400771-23.92-16-9.47041-3.76-19.58093-5.644897-29.77-5.55h-51.53v153.6z" fill-rule="nonzero"/><path d="m3087 719h36.41v216h-36.41z"/><path d="m3326.74 719h37.33l94.42 216h-38.88l-75.29-179.3-75 179.27h-38zm-47.83 135.14h129.28v30.86h-129.28z" fill-rule="nonzero"/><path d="m1863 719h-91c-34.51227 0-62.49 27.977726-62.49 62.49v9.62h36v-9.62c0-14.630023 11.85998-26.49 26.49-26.49h91c14.61441.01103 26.45897 11.855594 26.47 26.47v91c.01062 7.029049-2.77285 13.774132-7.73752 18.750049-4.96466 4.975917-11.70343 7.774652-18.73248 7.779951h-91c-14.61441-.01103-26.45897-11.855594-26.47-26.47v-9.34h-36v9.34c.01104 34.496655 27.97335 62.458961 62.47 62.47h91c34.51227 0 62.49-27.977726 62.49-62.49v-91c.00531-16.576843-6.5761-32.476558-18.29582-44.200032-11.71973-11.723475-27.61734-18.309968-44.19418-18.309968z"/><path d="m1564.54 881.15c-3.69764 10.647882-13.72836 17.789757-25 17.8h-91c-14.61212-.016533-26.45347-11.857876-26.47-26.47v-91c.01102-14.616029 11.85398-26.463458 26.47-26.48h91c11.44465.011677 21.58976 7.366477 25.16 18.24h36.8c-4.13735-31.074396-30.65139-54.278457-62-54.260011h-91c-34.51227 0-62.49001 27.977737-62.49001 62.490011v91c-.01061 16.587241 6.57394 32.498163 18.30289 44.227116 11.72896 11.728952 27.63988 18.313505 44.22712 18.302897h91c31.16244-.00217 57.56216-22.95956 61.89-53.820013z"/></g></g></svg>