<svg height="175" viewBox="0 0 400 175" width="400" xmlns="http://www.w3.org/2000/svg"><g fill="none" fill-rule="nonzero"><path d="m344.772 36.021c-.95.321-2.552 1.366-3.151 2.056-.783.9-1.39 1.885-2.828 4.59-1.801 3.384-2.185 4.096-2.297 4.25-.067.091-.497.879-.957 1.75s-1.02 1.92-1.243 2.333c-1.177 2.169-1.711 3.163-2.108 3.917-.241.458-.476.871-.521.916-.081.081-.792 1.413-1.779 3.334-.259.504-.528.941-.596.972-.069.03-.125.124-.125.208s-.364.809-.809 1.611c-.769 1.387-1.318 2.396-2.586 4.75-.308.573-.884 1.642-1.279 2.375-.395.734-1.008 1.859-1.362 2.5-.355.642-.773 1.429-.929 1.75-.157.321-.323.621-.369.667-.088.088-.897 1.595-1.741 3.243-.28.547-.602 1.096-.717 1.221-.115.124-.208.289-.208.366s-.291.653-.646 1.28-.964 1.74-1.353 2.473c-.39.734-.915 1.709-1.168 2.167s-.778 1.433-1.167 2.167c-.658 1.241-1.254 2.333-2.048 3.75-.179.32-.624 1.146-.988 1.833-.365.688-.87 1.625-1.123 2.083-.254.459-.743 1.359-1.087 2-.344.642-.857 1.579-1.139 2.084-.48.856-1.221 2.231-2.157 4-.362.684-.843 1.566-2.271 4.166-.277.504-.658 1.217-.847 1.584-.188.366-.638 1.191-.999 1.833-.36.642-.888 1.617-1.172 2.167s-.651 1.225-.815 1.5-.676 1.212-1.137 2.083-.998 1.866-1.193 2.21c-3.311 5.868-3.719 8.498-1.804 11.623 1.917 3.129 6.375 4.862 9.461 3.679 1.316-.505 2.39-1.122 3.054-1.754 1.127-1.073 1.335-1.398 3.432-5.341.39-.734 1-1.847 1.355-2.474s.645-1.17.645-1.208c0-.037.563-1.083 1.25-2.324.688-1.24 1.25-2.284 1.25-2.319s.394-.765.875-1.621 1.025-1.856 1.208-2.222c.184-.366.39-.691.459-.721.068-.031.125-.124.125-.206 0-.083.525-1.101 1.166-2.262.642-1.161 1.167-2.134 1.167-2.163s.563-1.068 1.25-2.308c.688-1.241 1.25-2.286 1.25-2.323s.27-.543.6-1.125.96-1.733 1.401-2.558 1.111-2.062 1.49-2.75c.379-.687.817-1.512.974-1.833s.33-.621.385-.667c.056-.046.239-.383.407-.75.169-.366.467-.929.664-1.25.196-.32.757-1.333 1.248-2.25.49-.916 1.176-2.191 1.524-2.833.349-.642.808-1.504 1.022-1.917.213-.412.641-1.2.951-1.75.602-1.068 1.595-2.908 2.159-4 .19-.366.643-1.191 1.006-1.833.364-.642.865-1.579 1.114-2.083.249-.505.614-1.18.812-1.5.198-.321.754-1.328 1.237-2.238.483-.909 1.029-1.922 1.214-2.25.185-.327.714-1.308 1.175-2.179.462-.871.973-1.808 1.137-2.083s.531-.95.815-1.5.813-1.525 1.176-2.167c.362-.642.737-1.351.833-1.576l.174-.41.231.41c.126.225.385.709.575 1.076s.641 1.192 1.002 1.833c.36.642.885 1.617 1.165 2.167s.81 1.525 1.178 2.167c.367.641.819 1.466 1.005 1.833.418.826 1.425 2.699 2.107 3.917.282.504.867 1.584 1.3 2.399.433.816.923 1.716 1.09 2 .167.285.58 1.042.918 1.684s.846 1.579 1.129 2.083.692 1.254.909 1.667c.217.412.599 1.125.849 1.583.25.459.757 1.396 1.126 2.084 1.288 2.393 2.025 3.756 2.57 4.75.302.55.662 1.225.8 1.5.139.275.295.537.348.583s.397.683.763 1.417c.367.733.704 1.37.75 1.416s.233.384.415.75c.183.367.37.704.417.75s.385.684.752 1.417c.366.733.704 1.371.75 1.417.045.046.223.346.395.666.172.321.516.959.766 1.417s.888 1.658 1.42 2.667c.531 1.008 1.021 1.908 1.088 2 .067.091.518.916 1.002 1.833 1.1 2.086 1.226 2.314 1.329 2.417.045.045.25.42.453.833.204.412.663 1.275 1.019 1.917.638 1.147 1.202 2.187 2.441 4.5.344.641.832 1.541 1.086 2 .253.458.779 1.433 1.167 2.166.389.734.938 1.746 1.22 2.25.677 1.212 1.747 3.187 1.895 3.5.19.402.414.67 1.385 1.658 3.82 3.887 10.545 2.728 13.006-2.241l.578-1.167v-2.416-2.417l-.638-1.25c-.351-.687-.926-1.775-1.277-2.417-.351-.641-.818-1.504-1.037-1.916-.22-.413-.612-1.125-.871-1.584-.26-.458-.827-1.508-1.261-2.333-.433-.825-1-1.875-1.26-2.333-.26-.459-.65-1.171-.867-1.584-.217-.412-.684-1.275-1.037-1.916-.354-.642-.875-1.617-1.158-2.167-.284-.55-.814-1.525-1.178-2.167-.365-.641-.816-1.466-1.004-1.833-.485-.95-1.502-2.832-2.161-4-.311-.55-.74-1.338-.953-1.75-.214-.413-.674-1.275-1.024-1.917-.349-.641-.812-1.504-1.029-1.916-.217-.413-.436-.788-.486-.834-.051-.046-.321-.533-.601-1.083-.786-1.547-1.649-3.158-1.742-3.25-.046-.046-.215-.346-.377-.667-.161-.32-.6-1.145-.975-1.833-.376-.687-.903-1.663-1.171-2.167-.269-.504-.694-1.291-.946-1.75-.252-.458-.898-1.658-1.435-2.666-.537-1.009-1.303-2.412-1.703-3.12-.399-.707-.726-1.363-.726-1.458s-.06-.172-.133-.172-.228-.262-.344-.582c-.115-.32-.299-.678-.408-.796s-.498-.812-.865-1.543-.723-1.354-.792-1.385c-.068-.03-.125-.123-.125-.206s-.525-1.101-1.166-2.262c-.642-1.161-1.167-2.139-1.167-2.174s-.326-.643-.725-1.35-1.085-1.961-1.525-2.786c-1.042-1.954-1.151-2.15-1.25-2.25-.046-.045-.383-.683-.75-1.416-.367-.734-.704-1.371-.75-1.417s-.231-.383-.412-.75-.487-.929-.681-1.25-.825-1.483-1.403-2.583c-.577-1.1-1.105-2.075-1.173-2.167-.067-.092-.461-.808-.875-1.592s-1.078-2.022-1.475-2.75c-1.394-2.555-1.632-2.998-2.056-3.829-1.831-3.587-6.283-5.366-10.153-4.058m-335.272 39.151c-10.776 1.478-11.723 16.461-1.268 20.056l1.018.35 41.833.053c45.909.057 42.884.126 45.237-1.023 6.558-3.199 7.693-12.35 2.12-17.094-.171-.145-.41-.359-.532-.475-.326-.309-2.373-1.371-3.24-1.681-.812-.29-83.1-.47-85.168-.186m326.667 17.324c-7.213 1.013-7.862 12.263-.834 14.435 1.017.315 23.491.348 24.564.037 6.248-1.812 6.802-10.97.845-13.968l-1.159-.583-11.25-.025c-6.187-.013-11.662.033-12.166.104" fill="#24a1d1"/><path d="m296.188.445c-5.751 2.781-7.852 14.454-3.99 22.164 3.273 6.534 9.818 6.521 12.943-.026.878-1.839 1.001-2.205 1.602-4.76.356-1.513.357-6.625.002-8.146-.578-2.475-.694-2.824-1.545-4.677-1.92-4.18-5.767-6.124-9.012-4.555m-181.17 58.222c-.474 2.893-.551 4.043-.548 8.153.004 4.493.202 6.886.795 9.569.145.657.328 1.503.407 1.881s.297 1.165.484 1.75c.188.585.422 1.326.521 1.647.098.32.256.771.352 1 .855 2.058.988 2.357 1.441 3.25.233.458.558 1.058.722 1.333s.423.725.575 1c.711 1.288 4.335 5.415 4.756 5.416.058.001.545.291 1.083.646s1.427.823 1.977 1.04l1 .395 36.334.085 36.333.085.76.351c3.009 1.392 4.321 8.315 2.35 12.399-.871 1.805-1.464 2.434-2.775 2.945-.88.344-184.622.302-185.631-.042-2.446-.833-2.954-2.594-2.954-10.246v-5.607l-2.063-.097c-4.75-.225-8.257-2.884-9.708-7.361l-.381-1.176-.0075377 10.25c-.0064623 10.231.1155377 13.161.6525377 15.587.101.457.26 1.205.353 1.663.309 1.512.513 2.326.734 2.917.12.321.309.921.421 1.333.112.413.261.9.331 1.084.505 1.318.825 2.042 1.57 3.555 1.174 2.384 1.162 2.361 1.304 2.361.07 0 .127.087.127.194 0 .204 1.137 1.771 1.795 2.473 1.253 1.337 1.721 1.763 2.622 2.389 1.757 1.22 2.004 1.345 3.383 1.71 1.033.274 187.571.36 188.467.087.266-.081.821-.246 1.233-.368 2.759-.811 5.593-3.195 7.799-6.558 1.374-2.095 2.569-4.686 3.541-7.677.517-1.591.617-1.944.829-2.916.11-.505.3-1.367.422-1.917 1.295-5.835.926-16.245-.774-21.833-1.124-3.698-2.109-6.103-3.342-8.167-.164-.275-.422-.72-.574-.989-.738-1.315-4.148-5.094-4.595-5.094-.063 0-.217-.102-.341-.226-.483-.484-2.607-1.481-3.798-1.784-1.211-.309-2.366-.319-36.891-.321-33.185-.002-35.683-.022-36.239-.286-.677-.321-2.037-1.65-2.037-1.991 0-.124-.056-.226-.126-.226-.069 0-.224-.243-.344-.541s-.285-.667-.367-.821c-1.748-3.267-.255-10.065 2.551-11.621l.63-.35h54.346c51.691 0 54.34.014 54.23.292-.123.309-.637 2.014-.944 3.125-.101.366-.278 1.004-.394 1.416-.2.713-.443 1.838-.754 3.5-.078.413-.252 1.313-.386 2-.135.688-.331 1.925-.436 2.75-.104.825-.263 2.025-.352 2.667-.488 3.494-.542 6.031-.603 28.364-.068 25.108-.105 23.997.869 26.127 2.069 4.524 9.111 6.021 12.79 2.718.297-.267.618-.536.713-.597.221-.144 1.279-1.651 1.541-2.195.806-1.674.756-.223.872-25.5.114-24.848.082-23.748.845-28.75.34-2.229 1.045-4.993 1.658-6.5.111-.275.258-.65.325-.834 1.112-3.032 3.827-6.429 6.035-7.55 2.103-1.068 1.441-1.029 17.584-1.031l14.699-.002.059 21.042c.065 23.121.051 22.838 1.268 26.541.859 2.615 1.219 2.701 2.288.543.466-.94 2.031-4.034 3.478-6.876s4.234-8.335 6.195-12.208l3.564-7.042-.006-17.125c-.005-13.666-.051-17.312-.228-18.053-.825-3.447-3.317-6.117-7.1-7.607-.69-.271-170.597-.539-172.75-.271-6.588.818-12.737 9.566-14.565 20.723zm-106.342-20.409c-.93.226-1.181.326-2.548 1.011-1.758.882-3.381 2.585-4.313 4.525-2.78 5.79.318 12.795 6.435 14.55 1.207.346 85.09.362 86.25.016 6.684-1.993 9.6-9.779 5.873-15.679-1.362-2.155-3.734-3.811-6.373-4.448-1.355-.327-83.977-.303-85.324.025" fill="#040404"/><path d="m35.388 158.163c-4.044.865-4.436 5.086-.721 7.755.504.362 1.015.754 1.137.87.121.117.271.212.333.212.062.001.375.226.696.501s.715.543.875.594c.161.052.292.164.292.25 0 .085.094.157.208.159.631.013 1.811 1.63 1.817 2.489.011 1.357-.706 1.881-2.607 1.907-2.121.03-2.666-.504-2.86-2.802l-.107-1.265h-1.392-1.392v1.603c0 3.286 1.426 4.392 5.666 4.393001 4.05.000999 5.841-1.219001 5.8300503-3.973001-.0070503-1.877-.7060503-2.704-4.6630503-5.517-2.579-1.834-3.333-2.636-3.333-3.55 0-1.106.66-1.668 2.064-1.758 1.916-.122 2.479.356 2.697 2.287l.115 1.015h1.312 1.312v-1.408c0-1.991-.376-2.681-1.875-3.446-.778-.397-4.116-.592-5.404-.316m131.277-.008c-3.337.617-3.832 1.717-3.832 8.527 0 7.351.439 8.014 5.379 8.122 3.64.079 5.003-.531 5.803-2.6.577-1.492.6-10.917.028-11.986-.944-1.766-4.144-2.66-7.378-2.063m86.252-.011c-1.822.339-3.114 1.49-3.504 3.123-.291 1.219-.338 8.838-.064 10.327.19 1.035 1.09 2.406 1.579 2.406.131 0 .239.066.239.147 0 .71 5.232.969 6.906.343 1.716-.642 2.427-1.99 2.427-4.601v-1.056h-1.5-1.5v1.36c0 2.147-.964 3.009-3.056 2.732-1.997-.265-2.111-.596-2.111-6.139 0-5.85.127-6.282 1.994-6.784 1.875-.505 3.045.407 3.148 2.456l.061 1.209h1.424 1.424l-.104-1.697c-.193-3.176-3.003-4.636-7.363-3.826m60.916.016c-3.065.588-3.619 1.496-3.847 6.314-.429 9.053.288 10.363 5.669 10.35702 3.716-.00402 5.034-.73602 5.602-3.11302.305-1.277.341-10.104.044-11.092-.602-2.01-3.997-3.131-7.468-2.466m38 0c-3.403.652-3.98 1.993-3.995 9.286-.013 6.238.866 7.387 5.651 7.387 5.375 0 6.079-1.06 6.089-9.166.007-5.408-.264-6.229-2.37-7.173-.894-.401-4.015-.594-5.375-.334m20.5-.007c-1.78.31-2.907 1.218-3.382 2.723-.663 2.106-.32 12.291.415 12.291.074 0 .134.096.134.214 0 1.277 4.927 1.964 7.021.98l1.062-.5.053.486.052.486h1.323 1.322v-4.333-4.333h-3.166-3.167v1 1h1.75 1.75l-.001 1.208c-.002 2.749-.714 3.541-3.182 3.542-2.471 0-2.564-.234-2.532-6.361.026-5.114.067-5.415.823-6.077.749-.655 2.799-.731 3.896-.144.403.216.663 1.04.663 2.107v.891h1.5 1.5v-1.313c0-2.033-.446-2.789-2.079-3.523-.91-.409-4.24-.608-5.755-.344m-372.333 8.347v8.333h1.5 1.5v-8.333-8.333h-1.5-1.5zm12.333-.005v8.338h1.506c1.894 0 1.745.709 1.438-6.869-.142-3.504-.238-6.392-.213-6.417.026-.026.22.497.433 1.162.212.664.739 2.295 1.171 3.624s1.14 3.542 1.573 4.917c.432 1.375.892 2.744 1.02 3.042l.234.541h2.086 2.086v-8.333-8.333h-1.5-1.5v1.291c0 .711.08 3.242.179 5.625.099 2.384.155 4.776.125 5.317l-.054.983-1.126-3.4c-.619-1.87-1.596-4.825-2.172-6.566l-1.048-3.167-2.119-.047-2.119-.046zm36.667-7.33v1.002h2.25 2.25v7.333 7.333h1.5 1.5v-7.333-7.333h2.258 2.259l-.05-.959-.05-.958-5.959-.044-5.958-.044zm18.667 7.335v8.333h1.5 1.5v-8.333-8.333h-1.5-1.5zm9.666-7.333v1h2.25 2.25v7.333 7.333h1.5 1.5v-7.333-7.333h2.25 2.25v-1-1h-6-6zm18.5 5.772c0 9.519.127 9.75 5.417 9.865 3.431.075 4.799-.406 5.662-1.991l.421-.775v-6.936-6.935h-1.583-1.583v6.742c0 8.238.073 8.014-2.603 7.977-2.56-.034-2.564-.048-2.564-8.214v-6.505h-1.583-1.584zm18.167-5.774v1.002h2.25 2.25v7.333 7.333h1.5 1.5v-7.333-7.333h2.258 2.259l-.05-.959-.05-.958-5.959-.044-5.958-.044zm18.667 7.337v8.336l5.291-.044 5.292-.044.05-1.042.049-1.041h-3.841-3.841v-2.83-2.83l3.208-.045 3.208-.045.05-.959.05-.958h-3.258-3.258v-2.417-2.416h3.666 3.667v-1-1h-5.167-5.166zm51-.002v8.333h1.583 1.583v-3.996-3.996l3.209-.046 3.208-.045v-.917-.916l-3.208-.046-3.209-.045v-2.33-2.329h3.667 3.667v-1-1h-5.25-5.25zm28.5-7.333v1h2.166 2.167v7.333 7.333h1.583 1.584v-7.333-7.333h2.166 2.167v-1-1h-5.917-5.916zm18.5 7.335v8.336l5.375-.044 5.375-.044.049-1.042.05-1.041h-3.841-3.842v-2.83-2.83l3.209-.045 3.208-.045.05-.959.05-.958h-3.258-3.259v-2.417-2.416h3.667 3.667v-1-1h-5.25-5.25zm38-.002v8.333h1.583 1.583v-3.833-3.833h2.497 2.497l.045 3.791.045 3.792 1.541.048 1.542.048v-8.346-8.346l-1.542.048-1.541.048-.045 3.458-.045 3.459h-2.497-2.497v-3.5-3.5h-1.583-1.583zm20.833 0v8.333h1.505 1.504l-.089-3.875c-.05-2.131-.123-5.112-.164-6.625-.073-2.709-.07-2.737.193-1.916.147.458.694 2.146 1.216 3.75s1.304 4.041 1.738 5.416.857 2.669.94 2.875c.144.361.228.375 2.237.375h2.087v-8.333-8.333h-1.501-1.502l.081 1.125c.044.618.118 3.6.163 6.625l.083 5.5-.422-1.25c-.232-.688-.563-1.7-.736-2.25s-.439-1.338-.592-1.75c-.153-.413-.415-1.2-.581-1.75-.167-.55-.45-1.413-.63-1.917-.179-.504-.569-1.685-.866-2.625l-.54-1.708h-2.062-2.062zm41.333 0v8.333h5 5v-1.083-1.083h-3.416-3.417v-7.25-7.25h-1.583-1.584zm55.667998-8.125c0 .115 1.088002 2.376 2.417002 5.025l2.415 4.817v3.308 3.308h1.667 1.667v-3.305-3.306l.851-1.653c3.487-6.769 4.149-8.084 4.149-8.239 0-.114-.564-.159-1.611-.128l-1.611.048-.783 1.775c-.43.976-1.183 2.755-1.672 3.953-.489002 1.198-.904 2.162-.922 2.142-.017-.02-.571-1.349-1.231-2.953-.659-1.604-1.415-3.386-1.679-3.959l-.481-1.041h-1.588c-1.161 0-1.589.056-1.588002.208m-216.923998 1.641c.411.103.929.396 1.199.678l.474.495v4.953c0 6.501-.107 6.775-2.659 6.775-1.402 0-1.962-.285-2.34-1.191-.314-.752-.366-8.789-.064-9.988.366-1.452 1.723-2.142 3.39-1.722m147.058.007c1.783.434 1.92.92 1.819 6.42-.111 6.027-.299 6.474-2.719 6.474-2.47 0-2.485-.038-2.485-6.317 0-5.874.019-5.956 1.506-6.468 1.007-.346.922-.341 1.879-.109m38.646.229c1.056.441 1.136.833 1.136 5.581 0 5.888-.269 6.833-2.015 7.095-1.837.275-2.952-.333-3.178-1.734-.213-1.311-.156-8.858.072-9.626.445-1.498 2.178-2.07 3.985-1.316" fill="#4c6474"/></g></svg>