<svg height="512" viewBox="0 0 512 512" width="512"
    xmlns="http://www.w3.org/2000/svg">
    <path d="m256 43c117.636652 0 213 95.363348 213 213 0 1.016044-.007114 2.030426-.021295 3.0431.013277.462139.021295.927333.021295 1.3944v168.625c0 22.056872-17.880628 39.9375-39.9375 39.9375s-39.9375-17.880628-39.9375-39.9375l.002458-6.781468c-36.465923 29.233057-82.754664 46.718968-133.127458 46.718968-117.636652 0-213-95.363348-213-213s95.363348-213 213-213zm0 79.875c-73.522907 0-133.125 59.602093-133.125 133.125s59.602093 133.125 133.125 133.125 133.125-59.602093 133.125-133.125-59.602093-133.125-133.125-133.125zm0 186.625c9.803054 0 17.75 7.946946 17.75 17.75s-7.946946 17.75-17.75 17.75-17.75-7.946946-17.75-17.75 7.946946-17.75 17.75-17.75zm-32.638484-86.344474c3.254632-3.254633 8.93994-3.213435 12.318166.164792 3.378227 3.378226 3.419425 9.063534.164792 12.318166l-20.598941 20.598942 20.598941 20.640139c3.254633 3.29583 3.213435 8.981138-.164792 12.359364-3.378226 3.337029-9.063534 3.378227-12.318166.123594l-20.598942-20.640139-20.681336 20.681337c-3.089842 3.089841-8.981139 3.213435-12.359365-.123594-3.337029-3.378226-3.213435-9.269523-.123594-12.318167l20.681337-20.722534-20.681337-20.640139c-3.089841-3.089842-3.213435-8.939941.123594-12.318167 3.378226-3.378227 9.269523-3.213435 12.359365-.164792l20.681336 20.640139zm106.5-.000711c3.254632-3.253671 8.93994-3.212485 12.318166.164743 3.378227 3.377228 3.419425 9.060856.164792 12.314527l-20.598941 20.592855 20.598941 20.63404c3.254633 3.294857 3.213435 8.978485-.164792 12.355713-3.378226 3.336042-9.063534 3.377228-12.318166.123557l-20.598942-20.63404-20.681336 20.675226c-3.089842 3.088928-8.981139 3.212485-12.359365-.123558-3.337029-3.377228-3.213435-9.266784-.123594-12.314527l20.681337-20.716411-20.681337-20.63404c-3.089841-3.088929-3.213435-8.937299.123594-12.314528 3.378226-3.377228 9.269523-3.212485 12.359365-.164742l20.681336 20.63404z" fill="currentColor"/>
</svg>
