<svg height="512" viewBox="0 0 512 512" width="512"
    xmlns="http://www.w3.org/2000/svg">
    <path d="m256 43c117.636652 0 213 95.363348 213 213 0 1.016044-.007114 2.030426-.021295 3.0431.013277.462139.021295.927333.021295 1.3944v168.625c0 22.056872-17.880628 39.9375-39.9375 39.9375s-39.9375-17.880628-39.9375-39.9375l.002458-6.781468c-36.465923 29.233057-82.754664 46.718968-133.127458 46.718968-117.636652 0-213-95.363348-213-213s95.363348-213 213-213zm0 79.875c-73.522907 0-133.125 59.602093-133.125 133.125s59.602093 133.125 133.125 133.125 133.125-59.602093 133.125-133.125-59.602093-133.125-133.125-133.125zm-45.078999 178.286119c10.940833 5.286834 23.405072 11.387027 45.148245 11.387027 21.604681 0 33.653446-6.642432 45.148244-11.387027 4.016255-1.626718 8.03251.13556 8.03251 4.066796 0 10.166988-21.327698 30.772085-53.180754 30.772085-32.130039 0-53.319246-20.605097-53.319246-30.772085 0-3.931236 4.154746-5.829074 8.171001-4.066796zm-16.988296-71.661119c26.544213 0 44.317295 20.605097 44.317295 30.772085 0 3.931236-3.346879 5.693514-6.693758 4.066796-9.578999-4.744595-19.619636-11.387027-37.623537-11.387027-18.119311 0-28.506177 6.100193-37.623537 11.387027-3.346879 1.762278-6.809168-.13556-6.809168-4.066796 0-10.166988 17.657672-30.772085 44.432705-30.772085zm124.25 0c26.544213 0 44.317295 20.605097 44.317295 30.772085 0 3.931236-3.346879 5.693514-6.693758 4.066796-9.578999-4.744595-19.619636-11.387027-37.623537-11.387027-18.119311 0-28.506177 6.100193-37.623537 11.387027-3.346879 1.762278-6.809168-.13556-6.809168-4.066796 0-10.166988 17.657672-30.772085 44.432705-30.772085z" fill="currentColor"/>
</svg>
